<?xml version="1.0" standalone="no"?>
<!DOCTYPE svg PUBLIC "-//W3C//DTD SVG 20010904//EN"
 "http://www.w3.org/TR/2001/REC-SVG-20010904/DTD/svg10.dtd">
<svg version="1.0" xmlns="http://www.w3.org/2000/svg"
 width="512.000000pt" height="512.000000pt" viewBox="0 0 512.000000 512.000000"
 preserveAspectRatio="xMidYMid meet">

<g transform="translate(0.000000,512.000000) scale(0.100000,-0.100000)"
fill="#000000" stroke="none">
<path d="M185 5095 l-25 -24 0 -296 0 -295 -40 0 -40 0 0 -80 0 -80 40 0 40 0
0 -295 0 -296 25 -24 24 -25 271 0 271 0 24 25 25 24 0 296 0 295 415 0 416 0
24 25 c22 22 25 33 25 104 0 59 4 84 16 95 19 20 29 20 48 0 13 -12 16 -40 16
-139 l0 -123 -150 -112 c-83 -62 -156 -122 -161 -132 -6 -11 -29 -223 -52
-472 l-40 -451 77 -350 c42 -192 81 -361 85 -375 5 -14 32 -56 60 -94 93 -123
180 -326 222 -520 21 -93 38 -284 39 -418 l0 -78 80 0 80 0 0 64 c0 44 19 142
64 326 36 144 67 264 69 267 3 2 27 -10 55 -29 l50 -32 4 -67 c6 -81 34 -142
90 -198 69 -68 117 -86 228 -86 79 0 103 4 142 23 103 51 167 147 176 261 l4
67 50 32 c28 19 52 31 55 29 2 -3 33 -123 69 -267 45 -184 64 -282 64 -326 l0
-64 80 0 80 0 0 78 c1 119 18 319 36 407 38 188 131 407 225 531 28 38 55 80
60 94 4 14 43 183 85 375 l77 350 -40 451 c-23 249 -46 461 -52 472 -5 10 -78
70 -161 132 l-150 112 0 123 c0 99 3 127 16 139 19 20 29 20 48 0 12 -11 16
-36 16 -95 0 -71 3 -82 25 -104 l24 -25 416 0 415 0 0 -295 0 -296 25 -24 24
-25 271 0 271 0 24 25 25 24 0 296 0 295 40 0 40 0 0 80 0 80 -40 0 -40 0 0
295 0 296 -25 24 -24 25 -271 0 -271 0 -24 -25 -25 -24 0 -296 0 -295 -80 0
-80 0 0 136 c0 77 -5 154 -12 176 -17 59 -88 133 -145 152 -58 20 -334 23
-397 4 -77 -23 -166 -135 -166 -210 0 -11 -15 -17 -55 -21 -104 -11 -171 -78
-182 -181 l-6 -56 -637 0 -637 0 -6 55 c-11 104 -78 171 -181 182 -40 4 -56
10 -56 21 0 74 -81 180 -157 206 -58 20 -334 23 -397 4 -55 -16 -138 -99 -154
-154 -7 -24 -12 -100 -12 -178 l0 -136 -80 0 -80 0 0 295 0 296 -25 24 -24 25
-271 0 -271 0 -24 -25z m215 -215 l0 -80 40 0 40 0 0 -80 0 -80 -40 0 -40 0
-2 -276 -3 -275 -35 23 -35 24 -3 412 -2 412 40 0 40 0 0 -80z m4400 -328 c0
-377 -1 -410 -17 -424 -27 -24 -54 -35 -100 -43 l-43 -7 0 41 0 41 40 0 40 0
0 400 0 400 40 0 40 0 0 -408z m-3327 237 c39 -18 47 -50 47 -184 l0 -125
-200 0 -200 0 0 125 c0 131 8 166 44 183 29 14 279 15 309 1z m2480 0 c39 -18
47 -50 47 -184 l0 -125 -200 0 -200 0 0 125 c0 131 8 166 44 183 29 14 279 15
309 1z m-753 -523 c0 -37 5 -60 18 -74 9 -11 81 -68 159 -126 93 -69 144 -114
147 -129 3 -12 21 -200 40 -417 l35 -395 -74 -335 c-41 -184 -75 -335 -75
-337 0 -2 -129 -89 -286 -194 -277 -185 -343 -221 -219 -122 116 94 200 225
233 362 16 69 16 70 57 80 83 21 170 110 195 201 16 58 12 474 -5 575 -72 414
-444 725 -865 725 -422 0 -793 -311 -865 -725 -17 -101 -21 -517 -5 -575 25
-90 112 -180 194 -201 40 -10 41 -11 58 -80 34 -138 117 -268 233 -362 124
-99 58 -63 -219 122 -157 105 -286 192 -286 194 0 2 -34 153 -75 337 l-74 335
35 395 c19 217 37 405 40 417 3 15 54 60 147 129 78 58 150 115 160 126 12 14
17 37 17 74 l0 54 640 0 640 0 0 -54z m-249 -1186 c35 -16 70 -30 77 -30 18 0
17 -412 -3 -503 -51 -242 -299 -418 -532 -377 -102 17 -187 62 -264 139 -123
124 -149 214 -149 524 l0 207 54 0 c234 0 471 62 601 157 l40 30 56 -58 c36
-38 79 -69 120 -89z m-1031 -231 l0 -111 -22 14 c-52 34 -78 148 -40 180 16
15 38 25 55 27 4 1 7 -49 7 -110z m1343 83 c37 -32 11 -146 -40 -180 l-23 -14
0 111 c0 112 0 112 23 105 12 -3 30 -13 40 -22z m-1283 -894 c0 -5 -7 -39 -17
-75 l-16 -66 -32 94 c-18 52 -36 102 -40 113 -6 13 7 8 49 -19 31 -21 56 -42
56 -47z m1265 65 c-5 -10 -22 -60 -40 -112 l-32 -95 -18 73 c-15 62 -16 75 -4
81 8 5 32 22 54 38 48 36 49 37 40 15z m-685 -103 c47 0 102 5 124 9 l38 9 -4
-111 c-3 -89 -7 -119 -23 -145 -60 -100 -206 -101 -268 -2 -18 29 -22 53 -25
147 l-4 111 38 -9 c22 -4 77 -9 124 -9z"/>
<path d="M912 3628 c-40 -660 -41 -871 -1 -1263 33 -331 126 -586 319 -875
l57 -85 159 -680 c130 -555 163 -684 181 -703 l22 -22 911 0 911 0 22 23 c18
18 51 147 181 702 l160 680 69 105 c83 125 184 330 226 457 65 201 97 454 108
865 5 204 1 312 -28 782 l-34 546 -83 0 -84 0 6 -62 c17 -171 66 -1011 66
-1119 0 -144 -15 -426 -31 -584 -31 -314 -108 -528 -295 -812 l-73 -113 -96
-407 c-53 -224 -98 -409 -100 -411 -8 -8 -48 12 -81 40 -67 59 -106 170 -120
340 l-7 88 -80 0 -80 0 6 -122 c7 -176 53 -309 136 -401 l38 -42 -36 -198 -36
-197 -665 0 -665 0 -36 198 -36 197 38 42 c83 92 129 225 136 401 l6 122 -80
0 -80 0 -7 -87 c-14 -171 -53 -282 -120 -341 -33 -29 -73 -48 -82 -40 -2 2
-47 188 -100 412 l-96 408 -78 120 c-181 276 -258 488 -289 798 -16 152 -31
436 -31 577 0 105 48 946 65 1131 l6 62 -83 0 -84 0 -32 -532z"/>
<path d="M1360 1760 l0 -79 38 -11 c21 -5 48 -20 60 -33 27 -28 52 -88 52
-124 0 -69 5 -73 91 -73 l79 0 0 40 c0 158 -92 309 -211 344 -29 9 -65 16 -81
16 l-28 0 0 -80z"/>
<path d="M3661 1829 c-122 -36 -204 -156 -218 -321 l-6 -68 80 0 c88 0 93 3
93 73 0 36 25 96 52 124 12 13 39 28 60 33 l38 11 0 79 0 80 -32 -1 c-18 0
-48 -5 -67 -10z"/>
</g>
</svg>
